<svg id="Layer_1" data-name="Layer 1" xmlns="http://www.w3.org/2000/svg" viewBox="0 0 574 425.79"><defs><style>.cls-1{fill:#1e1e1e;}.cls-2{fill:#b0263d;}.cls-3,.cls-5{fill:#fff;}.cls-4,.cls-5{stroke:#000;}.cls-4{stroke-width:1.08px;}.cls-5{stroke-width:0.54px;}</style></defs><title>Harvard_Library_Vertical_Large_Signature_RGB</title><path class="cls-1" d="M301.09,57.47c-1.63-3.59-4.13-6.21-8.35-7.14v-2.1c2.63,0,11.36.32,13.37.32,1.85,0,10.31-.32,13-.32v2c-2.39.47-5.14,1.8-5.14,4.27,0,1.73,1.08,4.14,3.09,8.65l19.17,43.57,18.13-43.64c1.42-3.54,2.47-6.24,2.47-8.33,0-2.32-2.14-3.9-5.15-4.52v-2c2.41,0,8.23.32,10.09.32,1.69,0,8.62-.32,11.24-.32v2c-4.52,1.22-7.28,3.82-9.8,9.71l-26.67,62.91h-6Z" transform="translate(-43 -47.6)"/><path class="cls-1" d="M43,120.43c3.48-.79,5.93-2.37,5.93-6.31V56.44c0-3.79-2.28-5.36-5.93-6.31V48.08c1.83,0,9.7.31,11.62.31,2.21,0,10.46-.31,12.28-.31v2.05c-3.48.79-6.06,2.37-6.06,6.31v24.1h43V56.44c0-3.94-2.29-5.52-5.92-6.31V48.08c1.81,0,9.92.31,12.12.31,1.91,0,10-.31,11.76-.31v2.05c-3.48.79-6.06,2.37-6.06,6.31v57.68c0,3.79,2.42,5.36,6.06,6.31v1.9c-1.8,0-9.85-.16-11.76-.16-2.2,0-10.31.16-12.12.16v-1.9c3.46-.79,5.92-2.37,5.92-6.31V86.86h-43v27.26c0,3.94,2.41,5.36,6.06,6.31v1.9c-1.82,0-10.07-.16-12.28-.16-1.92,0-9.79.16-11.62.16Z" transform="translate(-43 -47.6)"/><path class="cls-1" d="M540,120.43c4.46-.79,6.92-2.56,6.92-6.63V56.44c0-3.95-2.43-5.52-6.73-6.31V48.08c2.47,0,10.56.31,12.79.31,3.61,0,13.69-.79,21.53-.79C601,47.6,617,62.36,617,84.81c0,21.81-16.7,38-44,38-7.85,0-17.17-.62-20.82-.62-2.22,0-9.75.32-12.22.32Zm18.82-3.8a78.09,78.09,0,0,0,11.59.8c22.2,0,33.76-13.36,33.76-32,0-19.33-12.2-32.93-33-32.93a91.76,91.76,0,0,0-12.39.79Z" transform="translate(-43 -47.6)"/><path class="cls-1" d="M240.81,113.59c0,3.81,2.43,5.89,6.89,6.84v2.06c-2.48,0-10.57-.32-12.89-.32-2,0-9.9.32-12.39.32v-2.06c4.14-.79,6.59-2.84,6.59-6.84V56.64c0-3.51-1.91-5.72-6.58-6.51V48.08c2.48,0,10.32.31,12.53.31,3.63,0,13.94-.6,18-.6,17.77,0,27.67,7.34,27.67,19.93,0,9.9-7.38,16.58-18.71,19.33a23,23,0,0,1,5.15,4.51c3.14,3.69,11.8,16.08,15.3,20.33s8,9,12.79,9.21v1.67a47.4,47.4,0,0,1-8.79.93c-6.07,0-10.89-2.13-15.56-7.8-4-4.92-11.1-15.38-15.15-20.55a16.79,16.79,0,0,0-11.41-6.8c-1.13-.19-2.19-.35-3.44-.49Zm0-30.25a78.8,78.8,0,0,0,9.29.46c13.9,0,18.27-8,18.27-15.07,0-10-6.69-16.23-18.87-16.23a54.52,54.52,0,0,0-8.69.79Z" transform="translate(-43 -47.6)"/><path class="cls-1" d="M475.1,113.59c0,3.81,2.43,5.89,6.89,6.84v2.06c-2.48,0-10.55-.32-12.89-.32-2,0-9.9.32-12.38.32v-2.06c4.12-.79,6.57-2.84,6.57-6.84V56.64c0-3.51-1.91-5.72-6.56-6.51V48.08c2.49,0,10.3.31,12.52.31,3.63,0,13.94-.6,18-.6,17.8,0,27.67,7.34,27.67,19.93,0,9.9-7.37,16.58-18.7,19.33a22.55,22.55,0,0,1,5.14,4.51c3.16,3.69,11.82,16.08,15.31,20.33s8,9,12.77,9.21v1.67a46.88,46.88,0,0,1-8.76.93c-6.07,0-10.9-2.13-15.57-7.8C501.07,111,494,100.52,490,95.35a16.81,16.81,0,0,0-11.4-6.8c-1.14-.19-2.19-.35-3.45-.49Zm0-30.25a79,79,0,0,0,9.29.46c13.9,0,18.27-8,18.27-15.07,0-10-6.7-16.23-18.85-16.23a54.56,54.56,0,0,0-8.71.79Z" transform="translate(-43 -47.6)"/><path class="cls-1" d="M133.08,120.43c4.7-1.11,7.29-4.15,9-8.22L165.87,55a61.55,61.55,0,0,0,2.19-7.24h6.67A67.38,67.38,0,0,0,176.91,55l25.14,57.4c1.79,4,3.74,6.8,8.74,8.07v1.9c-2.73,0-11.19-.16-13.11-.16s-10,.16-12.73.16v-1.9c3.67-.91,4.82-2.78,4.82-4.57a13.78,13.78,0,0,0-1.4-5.06L183,98.47H155.25l-4.94,12.41a15.18,15.18,0,0,0-1.22,4.72c0,2.07,1.08,3.72,5.24,4.83l0,1.9c-2.46,0-8.95-.16-10.47-.16l-10.77.16Zm47.37-27.8L168.62,65.06l-11,27.57Z" transform="translate(-43 -47.6)"/><path class="cls-1" d="M368.83,120.43c4.7-1.11,7.29-4.15,9-8.22L401.63,55a64.45,64.45,0,0,0,2.2-7.24h6.66A64.22,64.22,0,0,0,412.66,55l25.15,57.4c1.78,4,3.73,6.8,8.72,8.07v1.9c-2.71,0-11.18-.16-13.12-.16s-10,.16-12.71.16v-1.9c3.68-.91,4.81-2.78,4.81-4.57a13.91,13.91,0,0,0-1.38-5.06l-5.42-12.33H391l-4.95,12.41a15.16,15.16,0,0,0-1.21,4.72c0,2.07,1.07,3.72,5.24,4.83v1.9c-2.47,0-9-.16-10.49-.16l-10.76.16Zm47.38-27.8L404.37,65.06l-11,27.57Z" transform="translate(-43 -47.6)"/><path class="cls-1" d="M129.39,229.13A5.31,5.31,0,0,0,134,224V179.9c0-2.31-1.34-4.13-5-4.86v-1.58c1.33,0,8,.25,9.72.25,1.46,0,8.26-.25,9.6-.25V175c-3.52.85-5.1,2.43-5.1,4.86v45.7h17.62c6,0,8.87-2.06,11.3-6.92l1.58.36L172.17,231a148.12,148.12,0,0,0-14.95-.48H138.75c-1.7,0-7.54.24-9.36.24Z" transform="translate(-43 -47.6)"/><path class="cls-1" d="M188.46,229.13c3.65-.73,5.11-2.55,5.11-4.86V179.9c0-2.31-1.46-4.13-5.11-4.86v-1.58c1.34,0,8.27.25,10,.25,1.46,0,8.26-.25,9.6-.25V175c-3.52.85-5.23,2.43-5.23,4.86v44.37c0,2.43,1.71,4,5.23,4.86v1.58c-1.34,0-8.14-.24-9.6-.24-1.7,0-8.63.24-10,.24Z" transform="translate(-43 -47.6)"/><path class="cls-1" d="M226.5,229.13a5.3,5.3,0,0,0,4.62-5.1V179.9A5.3,5.3,0,0,0,226.5,175v-1.58c1.83,0,7.66.25,9.36.25,2.8,0,10-.61,13.13-.61,11.06,0,19.33,4.74,19.33,14.58,0,6.44-4.5,10.7-10.09,12.64,7.66,2.31,13.12,8,13.12,14.59,0,12.28-11.18,16-22.24,16-3.16,0-10.45-.48-13.25-.48-1.7,0-7.53.24-9.36.24Zm18.6-30.75c8,0,13.13-2.43,13.13-10.33,0-6.57-4.62-11.18-12.52-11.18a26,26,0,0,0-5.35.6v20.91Zm-4.74,27.71a42.17,42.17,0,0,0,6.81.49c8.75,0,14.1-4.38,14.1-11.91s-6.45-11.92-13.86-11.92h-7Z" transform="translate(-43 -47.6)"/><path class="cls-1" d="M284.36,229.13a5.44,5.44,0,0,0,4.62-5V179.9c0-1.82-1.34-4.25-4.62-4.86v-1.58c1.82,0,7.66.25,9.36.25,2.8,0,10.94-.61,14.1-.61,11.18,0,22.36,4.74,22.36,16.89,0,7.3-5.83,12.76-14.46,14.95l14.71,17c2.19,2.55,5.22,5.71,8,7.17v1.34c-8.39,1.21-12.28.6-17.26-5.11l-16.77-19.44a47.74,47.74,0,0,1-6.2-.37v18.6c0,1.82,1.58,4.25,4.86,5v1.58c-1.82,0-7.9-.24-9.6-.24-1.46,0-7.3.24-9.12.24Zm13.86-28a66.85,66.85,0,0,0,7.65.37c10.82,0,14.23-6.2,14.23-11.67,0-7.78-5.35-13-14.83-13a46.48,46.48,0,0,0-7,.6Z" transform="translate(-43 -47.6)"/><path class="cls-1" d="M346.11,229.13c3.28-.85,4.61-3.28,6.07-6.32L372,179.66a55.08,55.08,0,0,0,2.07-6.68h6s1.33,4.86,2.06,6.68l18.11,43.27c1.34,3,2.68,5.23,6.44,6.2v1.46c-2.06,0-7.9-.12-9.35-.12s-6.93.12-9,.12v-1.46c2.8-.85,3.16-2.55,2.92-3.77a30.42,30.42,0,0,0-1.1-3.16l-3.64-8.14H362.64L359,222.2c-.24.61-1,2.55-1.1,3.16-.24,1.22.73,2.92,3.53,3.77v1.46c-1.82,0-5.83-.12-7.05-.12h-8.26Zm38.4-19.81-9.6-22.73L364.7,209.32Z" transform="translate(-43 -47.6)"/><path class="cls-1" d="M416.48,229.13a5.44,5.44,0,0,0,4.62-5V179.9c0-1.82-1.34-4.25-4.62-4.86v-1.58c1.82,0,7.66.25,9.36.25,2.79,0,10.94-.61,14.1-.61,11.18,0,22.36,4.74,22.36,16.89,0,7.3-5.83,12.76-14.46,14.95l14.7,17c2.19,2.55,5.23,5.71,8,7.17v1.34c-8.39,1.21-12.28.6-17.26-5.11l-16.78-19.44a47.69,47.69,0,0,1-6.19-.37v18.6c0,1.82,1.58,4.25,4.86,5v1.58c-1.83,0-7.9-.24-9.6-.24-1.46,0-7.3.24-9.12.24Zm13.86-28a66.85,66.85,0,0,0,7.65.37c10.82,0,14.22-6.2,14.22-11.67,0-7.78-5.34-13-14.82-13a46.48,46.48,0,0,0-7.05.6Z" transform="translate(-43 -47.6)"/><path class="cls-1" d="M492.69,229.13c3.28-.61,4.86-3,4.86-5V204.46l-16-22.37c-2.07-2.92-4.87-6-7.54-7.05v-1.58c2.07,0,7.41.25,9,.25s6.93-.25,9.12-.25V175a2.74,2.74,0,0,0-1.94,2.31,5.35,5.35,0,0,0,1,3l13,18.35,13-18.11a6.17,6.17,0,0,0,1.46-3.64,2.63,2.63,0,0,0-2.43-2v-1.58c1.82,0,6.2.25,7.41.25s5.59-.25,7.41-.25V175c-3.89,1.7-6.92,4.86-9.72,8.75L506.79,204v20.18c0,1.94,1.46,4.37,4.74,5v1.58c-1.83,0-7.9-.24-9.6-.24-1.46,0-7.18.24-9.24.24Z" transform="translate(-43 -47.6)"/><path class="cls-2" d="M252.61,288H407.39v58.43c0,26.76-10,83.54-76.81,125.79,0,0-72.43-30.21-78-125.79Z" transform="translate(-43 -47.6)"/><path d="M330.68,473.39l-.52-.22c-.73-.3-73.12-31.58-78.64-126.72V286.87h157v59.51c0,23.4-7.54,82.59-77.32,126.71ZM253.69,289v57.35C258.88,435.94,324,468,330.49,471c68.42-43.51,75.82-101.58,75.82-124.57V289Z" transform="translate(-43 -47.6)"/><path class="cls-3" d="M371.19,365.46s-1.38,4.38-7.52-.13l-21.07-.5a2.31,2.31,0,0,1-3.14-2s.5-5.77.25-6.27c0,0,.13-1.63-2.63-1.63,0,0-4.27.5-4.39-3.26,0,0-.75-4,5.14-3.89,0,0,1.88.88,2-1.51,0,0-.25-16.3-.13-17.55,0,0,.5-1.51-2.38-1.76,0,0-4.14.88-4.64-1.88,0,0-.25-4.14,2.51-4.39,0,0,3.38.25,4-.63,0,0,.75.5.63-2.5l.12-5.15s.38-1.38,2.51-1.25c0,0,3.89.25,4.39-.13a15.81,15.81,0,0,0,1.13-1.63s2-.12,2.38.38c0,0,3,2,14.43,1.25,0,0,1.75,0,2.13.51,0,0,2.13,1.62,3.38-.13a41,41,0,0,1,7.53-.25s6.15,1.63,10.41-1.88l1.38.25s1.75,2.88,3,2c0,0,3.76-.38,4.39.37,0,0,1.25,1.88.63,6.77,0,0-.76,2.14,2.88,2.14,0,0,4.14-.76,3.64,3.13,0,0,1.12,4.39-5.77,3.76a4,4,0,0,0-.75,2.14s-.13,14.29-.26,15.92c0,0-.12,2.26,2.89,2.14,0,0,4-.26,4.14,3.38,0,0,.5,4.77-5.27,3.89,0,0-1.76.25-2,1.38l-.25,6.27s.13,3.14-3.38,2.38c-.51,0-19.57.38-21.2-.12C372.32,365.08,371.44,365,371.19,365.46Z" transform="translate(-43 -47.6)"/><path class="cls-3" d="M330.47,386.72a2.37,2.37,0,0,0,1.13-1s2.63-.25,3-.63l8.28.63s8.15.63,11.67-1.88a6.57,6.57,0,0,1,2.13.37s1.75.38,2.26,1.13l4.76-.13s2.76.88,2.51,2.64v2.26s-.5,4.51.75,4.76h3.64s3,1.38,2.63,3.14a3,3,0,0,1-2.5,3,15.17,15.17,0,0,1-3.52.63,5.48,5.48,0,0,0-1,2.51l-.37,16.42s-.26,1.76,2.38,1.51c0,0,3.88-.38,5,1.75,0,0,1,3.64-1,4.27l-1.5.75-3.27.5s-1.38.13-1.5,2.51v4.39s.12,3-2.26,3l-3.51.25a2.89,2.89,0,0,1-2.63.25s-21.32.38-22.08.13l-2.51.5s-2.76,2.51-5,.62l-1.76-1.38a5.92,5.92,0,0,1-1.75.13c-.5-.13-23.58.26-23.58.26s-4.89.5-5.27-1.14c0,0-.63-6.39-.38-7.14,0,0,0-1.89-1.12-2,0,0-4.89-.25-5-.76,0,0-2.64-1.87-1.88-3.76a4.37,4.37,0,0,1,3.51-2.76s4,.63,4-.5a6.92,6.92,0,0,0,.25-2s.25-14.93.13-15.93c0,0,.38-1.88-1.26-1.88a4,4,0,0,1-2.88-.25s-3,.12-3.63-2.26a3.65,3.65,0,0,1,.24-2.76S289,394.12,293,395c0,0,2.25.63,2.51-1l-.13-6s-.5-1.63,2.63-2.51c0,0,4,1.13,5.27-.88,0,0,1.38-2.76,2.51-.88,0,0,2.38,2.26,8.9,2,0,0,11.29-.88,11.54-.38,0,0,2.76.38,3.51,1.26Z" transform="translate(-43 -47.6)"/><path class="cls-3" d="M296.2,365.76s-1.38,4.39-7.53-.13l-21.07-.5a2.3,2.3,0,0,1-3.13-2s.5-5.77.25-6.27c0,0,.13-1.64-2.63-1.64,0,0-4.27.51-4.39-3.26,0,0-.76-4,5.14-3.89,0,0,1.88.88,2-1.5,0,0-.25-16.3-.13-17.56,0,0,.5-1.5-2.38-1.75,0,0-4.14.87-4.64-1.88,0,0-.25-4.14,2.51-4.39,0,0,3.38.25,4-.63,0,0,.75.5.63-2.51l.12-5.14s.38-1.38,2.51-1.26c0,0,3.89.25,4.39-.12A15.81,15.81,0,0,0,273,309.7s2-.13,2.38.37c0,0,3,2,14.42,1.26,0,0,1.76,0,2.14.5,0,0,2.13,1.63,3.38-.13a42.24,42.24,0,0,1,7.53-.25s6.14,1.63,10.41-1.88l1.38.25s1.75,2.89,3,2c0,0,3.76-.38,4.39.38,0,0,1.25,1.88.62,6.77,0,0-.75,2.13,2.89,2.13,0,0,4.14-.75,3.64,3.14,0,0,1.12,4.39-5.78,3.76a4,4,0,0,0-.75,2.13s-.12,14.3-.25,15.93c0,0-.12,2.26,2.89,2.13,0,0,4-.25,4.14,3.39,0,0,.5,4.76-5.27,3.88,0,0-1.76.26-2,1.39l-.25,6.27s.13,3.13-3.39,2.38c-.5,0-19.56.37-21.19-.13C297.33,365.38,296.45,365.26,296.2,365.76Z" transform="translate(-43 -47.6)"/><path class="cls-4" d="M371.19,365.46s-1.38,4.38-7.52-.13l-21.07-.5a2.31,2.31,0,0,1-3.14-2s.5-5.77.25-6.27c0,0,.13-1.63-2.63-1.63,0,0-4.27.5-4.39-3.26,0,0-.75-4,5.14-3.89,0,0,1.88.88,2-1.51,0,0-.25-16.3-.13-17.55,0,0,.5-1.51-2.38-1.76,0,0-4.14.88-4.64-1.88,0,0-.25-4.14,2.51-4.39,0,0,3.38.25,4-.63,0,0,.75.5.63-2.5l.12-5.15s.38-1.38,2.51-1.25c0,0,3.89.25,4.39-.13a15.81,15.81,0,0,0,1.13-1.63s2-.12,2.38.38c0,0,3,2,14.43,1.25,0,0,1.75,0,2.13.51,0,0,2.13,1.62,3.38-.13a41,41,0,0,1,7.53-.25s6.15,1.63,10.41-1.88l1.38.25s1.75,2.88,3,2c0,0,3.76-.38,4.39.37,0,0,1.25,1.88.63,6.77,0,0-.76,2.14,2.88,2.14,0,0,4.14-.76,3.64,3.13,0,0,1.12,4.39-5.77,3.76a4,4,0,0,0-.75,2.14s-.13,14.29-.26,15.92c0,0-.12,2.26,2.89,2.14,0,0,4-.26,4.14,3.38,0,0,.5,4.77-5.27,3.89,0,0-1.76.25-2,1.38l-.25,6.27s.13,3.14-3.38,2.38c-.51,0-19.57.38-21.2-.12C372.32,365.08,371.44,365,371.19,365.46Z" transform="translate(-43 -47.6)"/><path class="cls-5" d="M347.49,313.78s.25,2.51.25,3.14-.38,36.24-.38,36.24a4.31,4.31,0,0,1-2,4.14s-.63.25-.76-1.5l.25-37.63S345.11,313.53,347.49,313.78Z" transform="translate(-43 -47.6)"/><path class="cls-3" d="M343.35,357.68s.25-35.37.13-36,.12.5.12.5-.37-6.14,1.25-8.65c0,0-.5-2.13-3.38.5l-.13,5.15s0,2.88-2.63,2.75c0,0-3-.12-4.39,1.26,0,0-.75,2.76,2.13,2.26,0,0,4.52,0,4.77,1.88L341,346.26s1,3.14-2.51,3.14c0,0-4.27-.25-4.14,2.38,0,0,.88,2.26,4.52,1.51,0,0,2.63.5,2.5,3v4.76s-.25,1.89,2.26,2h19.56s1,.13,1-1.13c0,0-.13-1-1.63-1l-16.31-.25S343.6,361.56,343.35,357.68Z" transform="translate(-43 -47.6)"/><path class="cls-5" d="M346.74,357.93s-.51,1.75,1.38,1.38H361l3.52.75s3.63-.88,0-2.88c0,0-11.54.12-12.55-.13,0,0-2.38-.63-2.88-.75C349.12,356.3,347.86,355.8,346.74,357.93Z" transform="translate(-43 -47.6)"/><path class="cls-3" d="M368.18,359.68s-2.38,0-2.26,3.14a2.7,2.7,0,0,0,2.76,2.38,2.5,2.5,0,0,0,2-2.88S369.31,359.18,368.18,359.68Z" transform="translate(-43 -47.6)"/><path class="cls-5" d="M369.94,358.43s1.13-1.25,1.88-1.25c0,0,12.54,1.12,14.67-.38,0,0,1.88-.38,2.38,0,0,0,1.89,1.5,1.89,2.38,0,0-.13,1.13-2.39.5l-14.92.13S369.56,360.69,369.94,358.43Z" transform="translate(-43 -47.6)"/><path class="cls-3" d="M372,362.19s0-1,1.75-1l17.56-.13s1.63.88,1.63-2.13c0,0,.64-13.67.7-28.73,0-4.46.22-9.17.05-13.53,0,0-.38-1.89-.88-2.26,0,0,0-2,2.14-1.26,0,0,1.88.13,1.38,3l.12,4.39s-.37,1.89,3,1.38c0,0,3.39.51,3.51,1.76,0,0,1,2.51-3,2.26H397a2.06,2.06,0,0,0-.88,2.26l-.38,18.18s-.25,3.14,2.76,3c0,0,3.14-.12,3.77.88,0,0,2.13,3.13-2.51,2.88,0,0-2.89-.12-3.51.38,0,0-.51.63-.88,6.52,0,0,.25,3.51-2.39,3.14,0,0-17.43.25-19.06-.13C374,363.07,372.2,363.57,372,362.19Z" transform="translate(-43 -47.6)"/><path class="cls-3" d="M349.37,312.64,349,352.9s-.12,1.88,3,2.26c0,0,3.64.38,4.52,0,0,0,2.38-.13,8.53.12,0,0,1.5,1.51,1.63-.37,0,0,1-32.61.5-39.38,0,0-.13-2.89-2.26-3,0,0-9.53.75-10.41,0l-3.76-1S349.24,311.64,349.37,312.64Z" transform="translate(-43 -47.6)"/><path class="cls-3" d="M369.19,314.65s-.38,18.94-.26,19.56l-.25,15.93-.5,5.52s.75,1.13,1.38.38a21.38,21.38,0,0,1,6.52-.63s8,.75,9.66-.5c0,0,1.25.63,1.63-1.38,0,0,.5-35.12.25-35.75,0,0,.5-5,.25-5.51,0,0-.12-1.13-2.26-.13,0,0,.26,1-11.66.63C374,312.77,369.44,312.64,369.19,314.65Z" transform="translate(-43 -47.6)"/><path class="cls-5" d="M389.13,314.16,389,353.79s1,3.51,2.63,3.14a9.67,9.67,0,0,0,.38-2l.5-37.75S391.26,311.15,389.13,314.16Z" transform="translate(-43 -47.6)"/><path d="M373.73,326c-.37-1,2.14-1.13,2.14-1.13l1.25.25a3.78,3.78,0,0,1,1.75.25,1.46,1.46,0,0,1-.62,2.14l-.5,1.63c-.13,1.38,0,13.29,0,13.29a9.18,9.18,0,0,0,1.25,1.76c0,1.12-1.38.87-1.38.87l-3.64.13c-1.13-.13-.75-1.38-.75-1.38,1.25-.63,1.63-2.89,1.63-2.89V328.53Z" transform="translate(-43 -47.6)"/><path d="M356.8,337.68l-.25,3.89,1.13,1.88c.75,1-.5,1.76-.5,1.76l-4-.38c-.75-.37,0-1.63,0-1.63a3.24,3.24,0,0,0,1.13-2.26l-.12-7.27.12-5.27c0-.62-1-1.75-1-1.75-.88-.13-.63-1.26-.63-1.26.25-.62,2.38-.25,2.38-.25h5.27c5,1.63,4.27,5.27,4.27,5.27.37,3.64-3.51,5.14-3.51,5.14l-.26,2,3.64,5.77c.63.5.5,1,.5,1-.5,1.38-2.51,0-2.51,0l-4.51-7C357.55,336.81,356.8,337.68,356.8,337.68Zm.13-9.9c.12,2.76.12,6.52.12,6.52a2.36,2.36,0,0,0,3.76-.76c3.14-3,0-5.76-.5-6.52s-3-.12-3-.12Z" transform="translate(-43 -47.6)"/><path class="cls-4" d="M330.47,386.72a2.37,2.37,0,0,0,1.13-1s2.63-.25,3-.63l8.28.63s8.15.63,11.67-1.88a6.57,6.57,0,0,1,2.13.37s1.75.38,2.26,1.13l4.76-.13s2.76.88,2.51,2.64v2.26s-.5,4.51.75,4.76h3.64s3,1.38,2.63,3.14a3,3,0,0,1-2.5,3,15.17,15.17,0,0,1-3.52.63,5.48,5.48,0,0,0-1,2.51l-.37,16.42s-.26,1.76,2.38,1.51c0,0,3.88-.38,5,1.75,0,0,1,3.64-1,4.27l-1.5.75-3.27.5s-1.38.13-1.5,2.51v4.39s.12,3-2.26,3l-3.51.25a2.89,2.89,0,0,1-2.63.25s-21.32.38-22.08.13l-2.51.5s-2.76,2.51-5,.62l-1.76-1.38a5.92,5.92,0,0,1-1.75.13c-.5-.13-23.58.26-23.58.26s-4.89.5-5.27-1.14c0,0-.63-6.39-.38-7.14,0,0,0-1.89-1.12-2,0,0-4.89-.25-5-.76,0,0-2.64-1.87-1.88-3.76a4.37,4.37,0,0,1,3.51-2.76s4,.63,4-.5a6.92,6.92,0,0,0,.25-2s.25-14.93.13-15.93c0,0,.38-1.88-1.26-1.88a4,4,0,0,1-2.88-.25s-3,.12-3.63-2.26a3.65,3.65,0,0,1,.24-2.76S289,394.12,293,395c0,0,2.25.63,2.51-1l-.13-6s-.5-1.63,2.63-2.51c0,0,4,1.13,5.27-.88,0,0,1.38-2.76,2.51-.88,0,0,2.38,2.26,8.9,2,0,0,11.29-.88,11.54-.38,0,0,2.76.38,3.51,1.26Z" transform="translate(-43 -47.6)"/><path class="cls-3" d="M333.73,436a4.65,4.65,0,0,1,2.51-.5c1,.25,15.68-.13,15.68-.13s6.39.51,7.39-.37l1.51-.51a3,3,0,0,0,.62-1.75c0-1,.13-4.39.13-4.39l.37-1.25s-.12-1.26,0-34.75a5.2,5.2,0,0,0-1.12-4.26s0-1,.5-.87.25.12.25.12,2.26-.63,2.63.25c0,0,1,3,.13,4.76,0,0-.25,3.64,1.63,3.64a2.37,2.37,0,0,0,2.26.38s3.26.38,3.26,1.38a1.83,1.83,0,0,1-2.26,1.88l-3,.25a2.34,2.34,0,0,0-1.76,2.76c.26,2.38-.12,19.44-.12,19.44s0,2,3.13,1.88c0,0,3.89-.13,3.89,1a1.79,1.79,0,0,1-1.75,2.63s-5.27-.13-4.89,1.37a37.5,37.5,0,0,1-.63,4.14s.5,2.89-.13,3.39c0,0-.37,1.63-3.76,1.38,0,0-21.57-.12-25,.13C335.23,438,333.22,437.77,333.73,436Z" transform="translate(-43 -47.6)"/><path class="cls-3" d="M329.84,433.63A2.54,2.54,0,0,1,332,436c0,2,.13,3.14-1.13,3.39a2.36,2.36,0,0,1-3-1.76C327.46,436,328.09,434,329.84,433.63Z" transform="translate(-43 -47.6)"/><path class="cls-5" d="M332.35,432.62s2.25-1.5,3.13-1.25c0,0,11.42.75,14.93.13s1.38-.13,1.38-.13,3,0,3.89-1.13a1.23,1.23,0,0,1,1.38.63l1.88,2s.12,1.25-2,1.12c0,0-20.44,0-21.07.13C335.86,434.13,332,434.75,332.35,432.62Z" transform="translate(-43 -47.6)"/><path class="cls-5" d="M302.62,388.1s.88,0,.76,1.51l-.25,37.87a4.66,4.66,0,0,1-1.76,4.14s-1.13,1.38-1.13-.75l.5-38.63S300.87,389.35,302.62,388.1Z" transform="translate(-43 -47.6)"/><path class="cls-3" d="M300.62,388.35s-1.51,2.76-1.38,3.39l-.13,8.4s-.12,5.39,0,6-.12,16.43-.12,16.43a40,40,0,0,0,0,4v6.77s-.26,3,2,2.25c0,0,22.08-.5,23.46-.12,0,0,2,.38,1.25,1.38,0,0,0,.88-1.38.63a170,170,0,0,1-19.81.62s-6.27.38-6.65-.37c0,0-1-.13-1-3.77a25.26,25.26,0,0,0-.25-4s.25-1.75-2.88-2.13c0,0-4.39.75-4.51-1.88,0,0,.62-1.88,4.89-1.63,0,0,3.13.5,2.5-2l.38-18.56s.38-3.26-1.76-3.39a10.26,10.26,0,0,0-2.63.13s-3.64,0-3.38-2.13c0,0,1.25-2.26,4.89-1.76A2.43,2.43,0,0,0,297,394s-.13-6.4,1.38-6.65C298.36,387.35,301.49,387.47,300.62,388.35Z" transform="translate(-43 -47.6)"/><path class="cls-5" d="M304.38,429.86a6.33,6.33,0,0,0,4.64,1.76l17.06.25s1.88.13,1.75,1.13c0,0-.25,1.5-2.5,1l-20.57-.24-2.26.12s-1.51-.25.88-3.14Z" transform="translate(-43 -47.6)"/><path class="cls-5" d="M357.06,428.24s1.5,2.88,2.25,3.26c0,0,1.38,1.62,1-1.26l.25-36.12a7.44,7.44,0,0,1,0-3.26l-1.51-2.76s-1.63-1.25-1.63.75l-.25,38.51Z" transform="translate(-43 -47.6)"/><path class="cls-3" d="M329.21,411a39.07,39.07,0,0,1-.25,5.9c-.2,1.57.5,8.9-.13,12.66,0,0-.12,1.26-2.75.13,0,0-16.06.38-16.56-.13,0,0-4.39.13-4.76-2.13,0,0,.62-17.18.25-17.81,0,0-.25-9.4,0-10.28,0,0,.37-8.65.12-9.66a9.67,9.67,0,0,0-.25-3s0-1.26,2.13-.5c0,0,.76,1.38,4.89.75a23.29,23.29,0,0,0,5.9.13s6.39-.5,8,0a2.83,2.83,0,0,1,3.26,2.26l-.13,7.77.75,2.51.88-.63.38-1.88.12-8.27a2.94,2.94,0,0,1,2.51-1.76,16.4,16.4,0,0,1,3.64-.13,41.45,41.45,0,0,0,9.15.25c1.89-.38,2.26,1.26,7.91-1.63,0,0,1.5.13,1.5,1.13,0,0-.5,10.66,0,12.67,0,0,0,19.56-.37,20.94l.25,6.27s.25,2.76-4.14,3c0,0,2.76.38-14.55-.12a13.76,13.76,0,0,0-5.77,1.25s-.63-.12-.63-1.75a78.43,78.43,0,0,0,0-11.67l-.25-6.39Z" transform="translate(-43 -47.6)"/><path d="M317.92,402.15s.38,9.28,0,10.53l-.12,2a4.59,4.59,0,0,0,1.25,1.88s.63,1.75-.87,1.63a32.33,32.33,0,0,0-3.89-.12s-1.76,0,0-2.26a5.33,5.33,0,0,0,.5-3.14s0-10.53.25-11.16c0,0,.25-1.38-.63-1.76l-1.5.13L311,401.65s-.38,1.88-1.26-.13v-1l1.13-3,.76-.13a8.42,8.42,0,0,0,2.13,1h5.89l2.13-1s.88.13.63,1.26c0,0,.38,2.88-1.25,3.26a2.92,2.92,0,0,1-1.51-1.76S318.05,399.26,317.92,402.15Z" transform="translate(-43 -47.6)"/><path d="M345.64,398.76a4.52,4.52,0,0,0-4.89,4.77s-.5,3.51,4.77,5.77c0,0,3.89,1.88,3.63,4.26,0,0-.5,4.27-4.64,2.13,0,0-2-1-1.88-2.13,0,0-.62-1.38-1.38-1.13,0,0-.88.25-.5,4.39,0,0,0,1.63,1.88,0l1,.25s3.38,2.76,6.27-.63c0,0,3.13-2.88.87-6.39a11.3,11.3,0,0,0-4.51-3.76s-2.76-1.26-3.39-3.39c0,0,.88-3.76,4.27-1.75a7.44,7.44,0,0,0,2,1.75s1,0,.76-2.26l-.25-1.88s-.25-1.38-2,0C347.65,398.76,346,399.39,345.64,398.76Z" transform="translate(-43 -47.6)"/><path d="M330.34,396.13a2.89,2.89,0,0,1,1,1.88A146.56,146.56,0,0,1,336,414.32a8.78,8.78,0,0,0,1.75,2.25c2.13.75,0,1.38,0,1.38-.88.37-3.76-.12-3.76-.12-1.51-.26-.88-.76-.88-.76.63-.63.12-3.13.12-3.13A8.31,8.31,0,0,0,332,411.3c-.5-.25-1.38.88-1.38.88s-1.38.5-1.5,0-1-1-1-1c-1.51,0-2.14,3.76-2.14,3.76.88,3.14,0,2.63,0,2.63-.75,1-3.13.26-3.13.26-1.13-.26-.38-1.14-.38-1.14a2.43,2.43,0,0,0,1.75-1.75c.63-.88,4.64-17.18,4.64-17.18C329.21,397,329.46,395.5,330.34,396.13Zm-2,8.27c-.12.63-1,4.14-1,4.14l.76,1.26s2,.12,2.75.12.88-.62.88-1.25a37.65,37.65,0,0,0-1.38-4.39l-.63-.75Z" transform="translate(-43 -47.6)"/><path class="cls-4" d="M296.2,365.76s-1.38,4.39-7.53-.13l-21.07-.5a2.3,2.3,0,0,1-3.13-2s.5-5.77.25-6.27c0,0,.13-1.64-2.63-1.64,0,0-4.27.51-4.39-3.26,0,0-.76-4,5.14-3.89,0,0,1.88.88,2-1.5,0,0-.25-16.3-.13-17.56,0,0,.5-1.5-2.38-1.75,0,0-4.14.87-4.64-1.88,0,0-.25-4.14,2.51-4.39,0,0,3.38.25,4-.63,0,0,.75.5.63-2.51l.12-5.14s.38-1.38,2.51-1.26c0,0,3.89.25,4.39-.12A15.81,15.81,0,0,0,273,309.7s2-.13,2.38.37c0,0,3,2,14.42,1.26,0,0,1.76,0,2.14.5,0,0,2.13,1.63,3.38-.13a42.24,42.24,0,0,1,7.53-.25s6.14,1.63,10.41-1.88l1.38.25s1.75,2.89,3,2c0,0,3.76-.38,4.39.38,0,0,1.25,1.88.62,6.77,0,0-.75,2.13,2.89,2.13,0,0,4.14-.75,3.64,3.14,0,0,1.12,4.39-5.78,3.76a4,4,0,0,0-.75,2.13s-.12,14.3-.25,15.93c0,0-.12,2.26,2.89,2.13,0,0,4-.25,4.14,3.39,0,0,.5,4.76-5.27,3.88,0,0-1.76.26-2,1.39l-.25,6.27s.13,3.13-3.39,2.38c-.5,0-19.56.37-21.19-.13C297.33,365.38,296.45,365.26,296.2,365.76Z" transform="translate(-43 -47.6)"/><path class="cls-5" d="M272.5,314.09s.25,2.51.25,3.13-.38,36.25-.38,36.25a4.31,4.31,0,0,1-2,4.14s-.62.25-.75-1.51l.25-37.62S270.11,313.84,272.5,314.09Z" transform="translate(-43 -47.6)"/><path class="cls-3" d="M268.36,358s.25-35.36.13-36,.12.5.12.5-.38-6.15,1.25-8.65c0,0-.5-2.14-3.38.5l-.13,5.14s0,2.88-2.63,2.76c0,0-3-.13-4.39,1.25,0,0-.76,2.76,2.13,2.26,0,0,4.52,0,4.77,1.88L266,346.57s1,3.14-2.51,3.14c0,0-4.27-.26-4.14,2.38,0,0,.88,2.26,4.51,1.5,0,0,2.64.51,2.51,3v4.77s-.25,1.88,2.26,2h19.56s1,.13,1-1.12c0,0-.13-1-1.63-1L271.24,361S268.61,361.87,268.36,358Z" transform="translate(-43 -47.6)"/><path class="cls-5" d="M271.74,358.23s-.5,1.76,1.38,1.39H286l3.51.75s3.64-.88,0-2.89c0,0-11.54.13-12.54-.12l-2.88-.76S272.87,356.1,271.74,358.23Z" transform="translate(-43 -47.6)"/><path class="cls-3" d="M293.19,360s-2.38,0-2.26,3.14a2.69,2.69,0,0,0,2.76,2.38,2.51,2.51,0,0,0,2-2.89S294.32,359.49,293.19,360Z" transform="translate(-43 -47.6)"/><path class="cls-5" d="M295,358.74s1.12-1.26,1.88-1.26c0,0,12.54,1.13,14.67-.38,0,0,1.88-.37,2.39,0,0,0,1.87,1.51,1.87,2.39,0,0-.12,1.13-2.38.5l-14.92.13S294.57,361,295,358.74Z" transform="translate(-43 -47.6)"/><path class="cls-3" d="M297,362.5s0-1,1.76-1l17.56-.13s1.63.88,1.63-2.13c0,0,.64-13.67.7-28.73,0-4.47.22-9.17,0-13.54,0,0-.38-1.88-.88-2.26,0,0,0-2,2.13-1.25,0,0,1.88.13,1.38,3l.13,4.39s-.38,1.88,3,1.38c0,0,3.39.5,3.51,1.75,0,0,1,2.51-3,2.26H322a2.07,2.07,0,0,0-.88,2.26l-.38,18.19s-.25,3.13,2.76,3c0,0,3.14-.13,3.76.87,0,0,2.14,3.14-2.5,2.89,0,0-2.89-.13-3.52.37,0,0-.5.63-.87,6.53,0,0,.25,3.51-2.39,3.13,0,0-17.43.25-19.06-.13C299,363.37,297.2,363.88,297,362.5Z" transform="translate(-43 -47.6)"/><path class="cls-3" d="M274.38,313,274,353.21s-.12,1.88,3,2.25c0,0,3.64.38,4.52,0,0,0,2.38-.12,8.52.13,0,0,1.51,1.5,1.64-.38,0,0,1-32.61.5-39.38,0,0-.13-2.88-2.26-3,0,0-9.53.75-10.41,0l-3.76-1S274.25,311.94,274.38,313Z" transform="translate(-43 -47.6)"/><path class="cls-5" d="M314.14,314.46,314,354.1s1,3.51,2.63,3.13a10.34,10.34,0,0,0,.38-2l.5-37.75S316.27,311.45,314.14,314.46Z" transform="translate(-43 -47.6)"/><path class="cls-3" d="M294.2,314.8s-.38,18.94-.25,19.56l-.25,15.93-.5,5.52s.75,1.13,1.38.38a21.38,21.38,0,0,1,6.52-.63s8,.75,9.65-.5c0,0,1.26.62,1.63-1.38,0,0,.51-35.12.26-35.75,0,0,.5-5,.25-5.51,0,0-.13-1.13-2.26-.13,0,0,.25,1-11.66.63C299,312.92,294.45,312.79,294.2,314.8Z" transform="translate(-43 -47.6)"/><path d="M290.33,326.4l-1.13,2.38s-2.76,12.16-4.26,14.67c0,0-.25,2.51-2.38.5,0,0-4.9-15.42-5.15-15.92l-1.63-1.13s-1-1.38.75-1.51l4.65.13s1.5,1.25-.51,2.63c0,0,.26,2,2.89,9.66,0,0,.75,2.89,1.63.75l2.51-8.9-.76-2.64s-.75-1.25.38-1.38C287.32,325.64,290,325.39,290.33,326.4Z" transform="translate(-43 -47.6)"/><path d="M297.6,328.4l-.12,13.3-.38,1s-1.25,1.63-.37,1.76c0,0-1.13.75,8,.87,0,0,3.51.63,2.64-3.88,0,0-.38-1.63-1.63.75,0,0-.38,2-4.9,1.38a3,3,0,0,1-1-1.88v-5.52s-.12-1.38,2-1.26c0,0,2.38,1.51,2.76.88,0,0,.88-2,0-3.26,0,0-1.13-.12-1.26.38,0,0-.75,1.5-2.88.62a5.19,5.19,0,0,1-.38-3.63s-.25-3.14,1.88-2.89c0,0,2.51.51,2.76,1.26,0,0,.63,1.5,1.26-.25l-.63-2.14s-.38-.87-1-.62c0,0-4.27.62-4.77.12l-3.39.38a1.45,1.45,0,0,0,1,1.88A.94.94,0,0,1,297.6,328.4Z" transform="translate(-43 -47.6)"/></svg>