<svg xmlns="http://www.w3.org/2000/svg" xmlns:xlink="http://www.w3.org/1999/xlink" width="15" height="15" viewBox="0 0 17 17"><g><g transform="translate(-138 -1588)"><path fill="#1e1e1e" id="1ql6a" d="M147.8 1593.9a.9.9 0 0 0 0 1.3 2.74 2.74 0 0 1 0 3.9l-3.25 3.25a2.74 2.74 0 0 1-3.9 0 2.74 2.74 0 0 1 0-3.9l.43-.43a6.44 6.44 0 0 1-.36-2.24l-1.38 1.37a4.6 4.6 0 0 0 6.5 6.5l3.26-3.25a4.6 4.6 0 0 0 0-6.5.93.93 0 0 0-1.3 0zm-2.6 3.9a2.74 2.74 0 0 1 0-3.9l3.25-3.25a2.74 2.74 0 0 1 3.9 0 2.74 2.74 0 0 1 0 3.9l-.43.44c.25.72.37 1.47.36 2.23l1.38-1.37a4.6 4.6 0 0 0-6.5-6.5l-3.26 3.25a4.6 4.6 0 0 0 0 6.5c.36.36.94.36 1.3 0a.9.9 0 0 0 0-1.3z"/></g></g></svg>